<svg width="1440" height="68" viewBox="0 0 1440 68" fill="none" xmlns="http://www.w3.org/2000/svg">
<mask id="path-1-inside-1_1_199" fill="white">
<path d="M0 0H1440V68H0V0Z"/>
</mask>
<path d="M0 0H1440V68H0V0Z" fill="#F2F4F7"/>
<path d="M1440 67H0V69H1440V67Z" fill="#F2F4F7" mask="url(#path-1-inside-1_1_199)"/>
<path d="M221.071 33.6453C220.388 33.6453 219.764 33.6847 219.199 33.7635C218.634 33.8423 218.023 34 217.367 34.2364V41.7635H213.938V30.5714H216.48L216.992 31.8916C217.675 31.3399 218.345 30.9458 219.002 30.7093C219.659 30.4729 220.349 30.3546 221.071 30.3546V33.6453Z" fill="#3470FF"/>
<path d="M212.298 41.6453C211.878 41.7373 211.504 41.803 211.175 41.8424C210.86 41.8818 210.486 41.9015 210.052 41.9015C208.791 41.9015 207.963 41.4943 207.569 40.6798C207.018 41.087 206.466 41.3957 205.914 41.6059C205.363 41.8161 204.758 41.9212 204.101 41.9212C203.51 41.9212 202.978 41.7964 202.505 41.5468C202.032 41.2972 201.665 40.9622 201.402 40.5419C201.139 40.1215 201.008 39.6617 201.008 39.1626C201.008 38.3218 201.218 37.6585 201.638 37.1724C202.072 36.6732 202.65 36.2791 203.372 35.9901C204.095 35.688 205.192 35.3268 206.663 34.9064L207.254 34.7291V34.6502C207.254 33.4417 206.702 32.8374 205.599 32.8374C205.06 32.8374 204.482 32.9557 203.865 33.1921C203.248 33.4286 202.538 33.8095 201.737 34.335L201.087 31.9704C201.98 31.4581 202.886 31.0575 203.806 30.7685C204.739 30.4795 205.724 30.335 206.762 30.335C208.023 30.335 208.988 30.6765 209.658 31.3596C210.341 32.0427 210.683 33.2118 210.683 34.867V38.6108C210.683 38.8998 210.742 39.11 210.86 39.2414C210.978 39.3596 211.169 39.4187 211.431 39.4187C211.681 39.4187 211.931 39.3859 212.18 39.3202L212.298 41.6453ZM204.436 38.7094C204.436 38.9721 204.502 39.1626 204.633 39.2808C204.778 39.399 205.001 39.4581 205.303 39.4581C205.855 39.4581 206.505 39.2217 207.254 38.7488V36.6601L206.959 36.7586C205.973 37.1133 205.303 37.4286 204.949 37.7044C204.607 37.9672 204.436 38.3021 204.436 38.7094Z" fill="#3470FF"/>
<path d="M195.182 42C193.553 42 192.174 41.6847 191.044 41.0542C189.915 40.4105 189.067 39.5632 188.502 38.5123C187.951 37.4482 187.675 36.2923 187.675 35.0443C187.675 33.8095 187.964 32.6666 188.542 31.6157C189.133 30.5648 190.007 29.7241 191.162 29.0936C192.318 28.463 193.711 28.1477 195.34 28.1477C196.864 28.1477 198.204 28.4433 199.36 29.0344L198.65 31.5172C198.164 31.2676 197.658 31.0706 197.133 30.9261C196.608 30.7684 196.01 30.6896 195.34 30.6896C194.486 30.6896 193.744 30.8867 193.113 31.2808C192.496 31.6617 192.023 32.1872 191.695 32.8571C191.379 33.5139 191.222 34.2496 191.222 35.064C191.222 36.3514 191.563 37.4088 192.246 38.2364C192.929 39.0509 193.908 39.4581 195.182 39.4581C196.273 39.4581 197.448 39.1888 198.709 38.6502L199.379 41.0739C198.841 41.3497 198.197 41.5731 197.448 41.7438C196.699 41.9146 195.944 42 195.182 42Z" fill="#3470FF"/>
<path d="M181.784 26H185.212V41.7636H181.784V26Z" fill="#101828"/>
<path d="M180.144 41.6453C179.724 41.7373 179.349 41.803 179.021 41.8424C178.706 41.8818 178.331 41.9015 177.898 41.9015C176.637 41.9015 175.809 41.4943 175.415 40.6798C174.863 41.087 174.311 41.3957 173.76 41.6059C173.208 41.8161 172.604 41.9212 171.947 41.9212C171.356 41.9212 170.824 41.7964 170.351 41.5468C169.878 41.2972 169.51 40.9622 169.247 40.5419C168.985 40.1215 168.853 39.6617 168.853 39.1626C168.853 38.3218 169.063 37.6585 169.484 37.1724C169.917 36.6732 170.495 36.2791 171.218 35.9901C171.94 35.688 173.037 35.3268 174.508 34.9064L175.1 34.7291V34.6502C175.1 33.4417 174.548 32.8374 173.444 32.8374C172.906 32.8374 172.328 32.9557 171.71 33.1921C171.093 33.4286 170.384 33.8095 169.582 34.335L168.932 31.9704C169.825 31.4581 170.732 31.0575 171.651 30.7685C172.584 30.4795 173.569 30.335 174.607 30.335C175.868 30.335 176.834 30.6765 177.504 31.3596C178.187 32.0427 178.528 33.2118 178.528 34.867V38.6108C178.528 38.8998 178.587 39.11 178.706 39.2414C178.824 39.3596 179.014 39.4187 179.277 39.4187C179.527 39.4187 179.776 39.3859 180.026 39.3202L180.144 41.6453ZM172.282 38.7094C172.282 38.9721 172.348 39.1626 172.479 39.2808C172.623 39.399 172.847 39.4581 173.149 39.4581C173.701 39.4581 174.351 39.2217 175.1 38.7488V36.6601L174.804 36.7586C173.819 37.1133 173.149 37.4286 172.794 37.7044C172.453 37.9672 172.282 38.3021 172.282 38.7094Z" fill="#101828"/>
<path d="M167.624 41.0345C167.23 41.3104 166.757 41.5272 166.205 41.6848C165.667 41.8293 165.141 41.9015 164.629 41.9015C163.237 41.9015 162.199 41.5994 161.516 40.9951C160.833 40.3777 160.491 39.4976 160.491 38.3547V32.9951H158.816V31.5567L160.925 30.7094L161.87 27.6946H163.92V30.5715H167.072V32.9951H163.92V37.5271C163.92 38.2234 164.031 38.716 164.255 39.005C164.478 39.294 164.813 39.4385 165.26 39.4385C165.838 39.4385 166.448 39.2677 167.092 38.9262L167.624 41.0345Z" fill="#101828"/>
<path d="M153.19 30.335C154.648 30.335 155.653 30.7225 156.205 31.4975C156.77 32.2726 157.052 33.3892 157.052 34.8473V41.7636H153.624V35.2808C153.624 34.3612 153.512 33.7241 153.289 33.3694C153.079 33.0148 152.665 32.8374 152.047 32.8374C151.377 32.8374 150.694 33.0607 149.998 33.5074V41.7636H146.569V30.5714H149.111L149.466 31.4975C150.753 30.7225 151.995 30.335 153.19 30.335Z" fill="#101828"/>
<path d="M137.028 36.798C137.094 37.7307 137.324 38.4204 137.718 38.867C138.112 39.3136 138.716 39.5369 139.531 39.5369C140.135 39.5369 140.693 39.4319 141.206 39.2217C141.731 38.9984 142.329 38.67 142.999 38.2365L143.925 40.4039C143.229 40.9688 142.539 41.376 141.856 41.6256C141.173 41.8752 140.391 42 139.511 42C138.211 42 137.12 41.7504 136.24 41.2512C135.36 40.7389 134.703 40.0493 134.27 39.1823C133.849 38.3021 133.639 37.3038 133.639 36.1872C133.639 34.4138 134.138 32.9951 135.137 31.931C136.135 30.867 137.593 30.335 139.511 30.335C141.035 30.335 142.191 30.7488 142.979 31.5763C143.78 32.3908 144.188 33.5534 144.201 35.064C144.201 35.6552 144.115 36.2332 143.945 36.798H137.028ZM140.871 34.5714C140.884 34.4926 140.89 34.3875 140.89 34.2562C140.877 33.7176 140.733 33.3103 140.457 33.0345C140.181 32.7455 139.8 32.601 139.314 32.601C138.158 32.601 137.436 33.2578 137.147 34.5714H140.871Z" fill="#101828"/>
<path d="M125.438 36.8375H123.547V41.7636H120V28.3645H125.36C127.278 28.3645 128.677 28.6929 129.557 29.3498C130.437 29.9934 130.877 31.0115 130.877 32.404C130.877 34.2168 130.213 35.4319 128.887 36.0493L132.65 41.7636H128.552L125.438 36.8375ZM123.547 34.3744H125.36C126.056 34.3744 126.555 34.2299 126.857 33.9409C127.172 33.6519 127.33 33.2053 127.33 32.601C127.33 31.9705 127.179 31.5173 126.877 31.2414C126.575 30.9655 126.069 30.8276 125.36 30.8276H123.547V34.3744Z" fill="#101828"/>
<path d="M1185.13 40V28.48H1186.55V33.56H1192.62V28.48H1194.04V40H1192.62V34.912H1186.55V40H1185.13ZM1199.96 40.24C1199.11 40.24 1198.36 40.0453 1197.74 39.656C1197.12 39.2667 1196.64 38.728 1196.31 38.04C1195.97 37.352 1195.8 36.5627 1195.8 35.672C1195.8 34.7653 1195.97 33.9707 1196.32 33.288C1196.66 32.6053 1197.14 32.0747 1197.76 31.696C1198.39 31.312 1199.12 31.12 1199.96 31.12C1200.83 31.12 1201.57 31.3147 1202.2 31.704C1202.82 32.088 1203.3 32.624 1203.63 33.312C1203.96 33.9947 1204.13 34.7813 1204.13 35.672C1204.13 36.5733 1203.96 37.368 1203.63 38.056C1203.29 38.7387 1202.81 39.2747 1202.19 39.664C1201.56 40.048 1200.82 40.24 1199.96 40.24ZM1199.96 38.888C1200.86 38.888 1201.53 38.5893 1201.96 37.992C1202.4 37.3947 1202.62 36.6213 1202.62 35.672C1202.62 34.696 1202.4 33.92 1201.96 33.344C1201.51 32.7627 1200.85 32.472 1199.96 32.472C1199.36 32.472 1198.87 32.608 1198.48 32.88C1198.09 33.152 1197.8 33.528 1197.6 34.008C1197.41 34.488 1197.32 35.0427 1197.32 35.672C1197.32 36.6427 1197.54 37.4213 1197.99 38.008C1198.44 38.5947 1199.09 38.888 1199.96 38.888ZM1216.22 40L1216.23 34.472C1216.23 33.8267 1216.06 33.3227 1215.71 32.96C1215.37 32.592 1214.92 32.408 1214.37 32.408C1214.05 32.408 1213.75 32.4827 1213.46 32.632C1213.17 32.776 1212.94 33.0053 1212.76 33.32C1212.58 33.6293 1212.49 34.0267 1212.49 34.512L1211.73 34.208C1211.72 33.5947 1211.85 33.0587 1212.11 32.6C1212.38 32.136 1212.74 31.776 1213.2 31.52C1213.66 31.264 1214.17 31.136 1214.75 31.136C1215.65 31.136 1216.36 31.4107 1216.88 31.96C1217.39 32.504 1217.65 33.2373 1217.65 34.16L1217.65 40H1216.22ZM1205.89 40V31.36H1207.16V33.672H1207.32V40H1205.89ZM1211.06 40L1211.07 34.528C1211.07 33.8667 1210.9 33.3493 1210.56 32.976C1210.22 32.5973 1209.76 32.408 1209.2 32.408C1208.64 32.408 1208.18 32.6 1207.84 32.984C1207.49 33.368 1207.32 33.8773 1207.32 34.512L1206.57 34.064C1206.57 33.504 1206.7 33.0027 1206.97 32.56C1207.23 32.1173 1207.59 31.7707 1208.05 31.52C1208.51 31.264 1209.03 31.136 1209.61 31.136C1210.19 31.136 1210.7 31.2587 1211.13 31.504C1211.57 31.7493 1211.9 32.1013 1212.13 32.56C1212.37 33.0133 1212.49 33.5547 1212.49 34.184L1212.48 40H1211.06ZM1223.4 40.24C1222.56 40.24 1221.81 40.0533 1221.18 39.68C1220.55 39.3013 1220.06 38.776 1219.71 38.104C1219.36 37.4267 1219.18 36.6373 1219.18 35.736C1219.18 34.792 1219.35 33.976 1219.7 33.288C1220.05 32.5947 1220.53 32.0613 1221.15 31.688C1221.77 31.3093 1222.5 31.12 1223.34 31.12C1224.21 31.12 1224.95 31.32 1225.56 31.72C1226.17 32.12 1226.63 32.6907 1226.93 33.432C1227.24 34.1733 1227.37 35.056 1227.33 36.08H1225.89V35.568C1225.88 34.5067 1225.66 33.7147 1225.24 33.192C1224.83 32.664 1224.21 32.4 1223.39 32.4C1222.51 32.4 1221.84 32.6827 1221.38 33.248C1220.92 33.8133 1220.69 34.624 1220.69 35.68C1220.69 36.6987 1220.92 37.488 1221.38 38.048C1221.84 38.608 1222.49 38.888 1223.34 38.888C1223.91 38.888 1224.41 38.7573 1224.83 38.496C1225.25 38.2347 1225.58 37.8587 1225.82 37.368L1227.19 37.84C1226.85 38.6027 1226.34 39.1947 1225.67 39.616C1225 40.032 1224.24 40.24 1223.4 40.24ZM1220.21 36.08V34.936H1226.6V36.08H1220.21Z" fill="#0B44CD"/>
<path d="M1266.19 40.24C1265.05 40.24 1264.07 39.9867 1263.27 39.48C1262.47 38.9733 1261.86 38.2693 1261.44 37.368C1261.02 36.4667 1260.82 35.424 1260.82 34.24C1260.82 33.056 1261.02 32.0133 1261.44 31.112C1261.86 30.2107 1262.47 29.5067 1263.27 29C1264.07 28.4933 1265.05 28.24 1266.19 28.24C1267.53 28.24 1268.62 28.5787 1269.48 29.256C1270.34 29.9333 1270.94 30.8453 1271.26 31.992L1269.82 32.376C1269.58 31.5173 1269.16 30.84 1268.56 30.344C1267.96 29.848 1267.17 29.6 1266.19 29.6C1265.33 29.6 1264.62 29.7947 1264.05 30.184C1263.48 30.5733 1263.05 31.1173 1262.76 31.816C1262.47 32.5093 1262.33 33.3173 1262.32 34.24C1262.31 35.1573 1262.46 35.9653 1262.74 36.664C1263.03 37.3573 1263.46 37.9013 1264.04 38.296C1264.62 38.6853 1265.33 38.88 1266.19 38.88C1267.17 38.88 1267.96 38.632 1268.56 38.136C1269.16 37.6347 1269.58 36.9573 1269.82 36.104L1271.26 36.488C1270.94 37.6293 1270.34 38.5413 1269.48 39.224C1268.62 39.9013 1267.53 40.24 1266.19 40.24ZM1275.47 40.24C1274.83 40.24 1274.29 40.1227 1273.85 39.888C1273.42 39.648 1273.09 39.3333 1272.87 38.944C1272.65 38.5547 1272.54 38.128 1272.54 37.664C1272.54 37.2107 1272.62 36.8187 1272.79 36.488C1272.97 36.152 1273.22 35.8747 1273.53 35.656C1273.85 35.432 1274.22 35.256 1274.66 35.128C1275.07 35.016 1275.53 34.92 1276.03 34.84C1276.55 34.7547 1277.06 34.6773 1277.59 34.608C1278.11 34.5387 1278.6 34.472 1279.05 34.408L1278.54 34.704C1278.55 33.936 1278.4 33.368 1278.07 33C1277.75 32.632 1277.2 32.448 1276.41 32.448C1275.89 32.448 1275.43 32.568 1275.03 32.808C1274.65 33.0427 1274.37 33.4267 1274.21 33.96L1272.86 33.552C1273.07 32.7947 1273.47 32.2 1274.07 31.768C1274.66 31.336 1275.45 31.12 1276.43 31.12C1277.21 31.12 1277.88 31.2613 1278.44 31.544C1279.01 31.8213 1279.41 32.2427 1279.66 32.808C1279.78 33.0747 1279.86 33.3653 1279.89 33.68C1279.92 33.9893 1279.94 34.3147 1279.94 34.656V40H1278.67V37.928L1278.97 38.12C1278.65 38.8187 1278.19 39.3467 1277.6 39.704C1277.02 40.0613 1276.31 40.24 1275.47 40.24ZM1275.69 39.048C1276.2 39.048 1276.65 38.9573 1277.02 38.776C1277.4 38.5893 1277.7 38.3467 1277.93 38.048C1278.16 37.744 1278.31 37.4133 1278.38 37.056C1278.46 36.7893 1278.5 36.4933 1278.51 36.168C1278.52 35.8373 1278.52 35.584 1278.52 35.408L1279.02 35.624C1278.55 35.688 1278.1 35.7493 1277.65 35.808C1277.2 35.8667 1276.78 35.9307 1276.38 36C1275.98 36.064 1275.62 36.1413 1275.3 36.232C1275.06 36.3067 1274.84 36.4027 1274.63 36.52C1274.43 36.6373 1274.27 36.7893 1274.14 36.976C1274.02 37.1573 1273.95 37.384 1273.95 37.656C1273.95 37.8907 1274.01 38.1147 1274.13 38.328C1274.25 38.5413 1274.44 38.7147 1274.69 38.848C1274.95 38.9813 1275.28 39.048 1275.69 39.048ZM1286.84 40C1286.33 40.1013 1285.82 40.1413 1285.32 40.12C1284.83 40.104 1284.38 40.0053 1283.99 39.824C1283.61 39.6373 1283.31 39.3493 1283.11 38.96C1282.94 38.6187 1282.84 38.2747 1282.83 37.928C1282.82 37.576 1282.81 37.1787 1282.81 36.736V28.96H1284.23V36.672C1284.23 37.024 1284.24 37.3253 1284.24 37.576C1284.25 37.8267 1284.31 38.0427 1284.41 38.224C1284.6 38.5653 1284.91 38.7653 1285.32 38.824C1285.74 38.8827 1286.25 38.8667 1286.84 38.776V40ZM1281.06 32.536V31.36H1286.84V32.536H1281.06ZM1291.05 40.24C1290.41 40.24 1289.87 40.1227 1289.43 39.888C1289 39.648 1288.67 39.3333 1288.44 38.944C1288.23 38.5547 1288.12 38.128 1288.12 37.664C1288.12 37.2107 1288.2 36.8187 1288.37 36.488C1288.55 36.152 1288.79 35.8747 1289.11 35.656C1289.42 35.432 1289.8 35.256 1290.24 35.128C1290.65 35.016 1291.11 34.92 1291.61 34.84C1292.12 34.7547 1292.64 34.6773 1293.16 34.608C1293.69 34.5387 1294.18 34.472 1294.63 34.408L1294.12 34.704C1294.13 33.936 1293.98 33.368 1293.65 33C1293.33 32.632 1292.78 32.448 1291.99 32.448C1291.47 32.448 1291.01 32.568 1290.61 32.808C1290.22 33.0427 1289.95 33.4267 1289.79 33.96L1288.44 33.552C1288.64 32.7947 1289.05 32.2 1289.64 31.768C1290.24 31.336 1291.03 31.12 1292 31.12C1292.79 31.12 1293.46 31.2613 1294.02 31.544C1294.59 31.8213 1294.99 32.2427 1295.24 32.808C1295.36 33.0747 1295.44 33.3653 1295.47 33.68C1295.5 33.9893 1295.52 34.3147 1295.52 34.656V40H1294.25V37.928L1294.55 38.12C1294.22 38.8187 1293.77 39.3467 1293.18 39.704C1292.6 40.0613 1291.89 40.24 1291.05 40.24ZM1291.27 39.048C1291.78 39.048 1292.22 38.9573 1292.6 38.776C1292.98 38.5893 1293.28 38.3467 1293.51 38.048C1293.74 37.744 1293.89 37.4133 1293.96 37.056C1294.04 36.7893 1294.08 36.4933 1294.08 36.168C1294.1 35.8373 1294.1 35.584 1294.1 35.408L1294.6 35.624C1294.13 35.688 1293.68 35.7493 1293.23 35.808C1292.78 35.8667 1292.36 35.9307 1291.96 36C1291.56 36.064 1291.2 36.1413 1290.88 36.232C1290.64 36.3067 1290.42 36.4027 1290.21 36.52C1290.01 36.6373 1289.84 36.7893 1289.72 36.976C1289.59 37.1573 1289.53 37.384 1289.53 37.656C1289.53 37.8907 1289.59 38.1147 1289.71 38.328C1289.83 38.5413 1290.02 38.7147 1290.27 38.848C1290.52 38.9813 1290.86 39.048 1291.27 39.048ZM1297.76 40V28.24H1299.18V40H1297.76ZM1305.26 40.24C1304.4 40.24 1303.66 40.0453 1303.04 39.656C1302.42 39.2667 1301.94 38.728 1301.6 38.04C1301.27 37.352 1301.1 36.5627 1301.1 35.672C1301.1 34.7653 1301.27 33.9707 1301.61 33.288C1301.95 32.6053 1302.44 32.0747 1303.06 31.696C1303.68 31.312 1304.42 31.12 1305.26 31.12C1306.12 31.12 1306.87 31.3147 1307.49 31.704C1308.12 32.088 1308.59 32.624 1308.92 33.312C1309.26 33.9947 1309.43 34.7813 1309.43 35.672C1309.43 36.5733 1309.26 37.368 1308.92 38.056C1308.59 38.7387 1308.11 39.2747 1307.48 39.664C1306.86 40.048 1306.12 40.24 1305.26 40.24ZM1305.26 38.888C1306.16 38.888 1306.82 38.5893 1307.26 37.992C1307.7 37.3947 1307.92 36.6213 1307.92 35.672C1307.92 34.696 1307.7 33.92 1307.25 33.344C1306.81 32.7627 1306.15 32.472 1305.26 32.472C1304.66 32.472 1304.16 32.608 1303.77 32.88C1303.38 33.152 1303.09 33.528 1302.9 34.008C1302.71 34.488 1302.61 35.0427 1302.61 35.672C1302.61 36.6427 1302.84 37.4213 1303.28 38.008C1303.73 38.5947 1304.39 38.888 1305.26 38.888ZM1314.69 44.08C1314.23 44.08 1313.79 44.0107 1313.36 43.872C1312.93 43.7333 1312.53 43.5227 1312.17 43.24C1311.81 42.9627 1311.51 42.6107 1311.27 42.184L1312.57 41.496C1312.79 41.9173 1313.09 42.224 1313.48 42.416C1313.87 42.608 1314.28 42.704 1314.69 42.704C1315.24 42.704 1315.7 42.6027 1316.06 42.4C1316.42 42.2027 1316.69 41.9067 1316.86 41.512C1317.04 41.1173 1317.12 40.6267 1317.12 40.04V37.68H1317.29V31.36H1318.55V40.056C1318.55 40.2907 1318.54 40.5173 1318.53 40.736C1318.52 40.9547 1318.49 41.1707 1318.45 41.384C1318.33 41.9973 1318.11 42.5013 1317.78 42.896C1317.45 43.296 1317.02 43.592 1316.5 43.784C1315.98 43.9813 1315.37 44.08 1314.69 44.08ZM1314.58 40.24C1313.78 40.24 1313.09 40.04 1312.51 39.64C1311.93 39.2347 1311.49 38.688 1311.17 38C1310.86 37.312 1310.71 36.536 1310.71 35.672C1310.71 34.808 1310.86 34.032 1311.17 33.344C1311.49 32.656 1311.93 32.1147 1312.51 31.72C1313.09 31.32 1313.77 31.12 1314.57 31.12C1315.39 31.12 1316.08 31.3173 1316.63 31.712C1317.18 32.1067 1317.6 32.648 1317.89 33.336C1318.17 34.024 1318.32 34.8027 1318.32 35.672C1318.32 36.5307 1318.17 37.3067 1317.89 38C1317.6 38.688 1317.18 39.2347 1316.63 39.64C1316.08 40.04 1315.39 40.24 1314.58 40.24ZM1314.76 38.936C1315.34 38.936 1315.82 38.7973 1316.19 38.52C1316.56 38.2373 1316.84 37.8507 1317.01 37.36C1317.2 36.864 1317.29 36.3013 1317.29 35.672C1317.29 35.032 1317.2 34.4693 1317.01 33.984C1316.84 33.4933 1316.57 33.112 1316.2 32.84C1315.83 32.5627 1315.36 32.424 1314.8 32.424C1314.21 32.424 1313.73 32.568 1313.34 32.856C1312.96 33.144 1312.68 33.5333 1312.49 34.024C1312.31 34.5147 1312.22 35.064 1312.22 35.672C1312.22 36.2853 1312.32 36.84 1312.5 37.336C1312.69 37.8267 1312.97 38.216 1313.34 38.504C1313.72 38.792 1314.19 38.936 1314.76 38.936Z" fill="#101828"/>
</svg>
